<svg xmlns="http://www.w3.org/2000/svg" viewBox="0 -0.5 32 31" shape-rendering="crispEdges">

<path stroke="#818181" d="M4 0h14M3 1h1M17 1h1M2 2h1M16 2h2M2 3h1M4 3h10M16 3h2M2 4h1M4 4h1M16 4h2M2 5h1M4 5h1M16 5h2M2 6h1M4 6h1M16 6h2M2 7h1M4 7h1M16 7h2M2 8h1M4 8h1M16 8h2M2 9h1M4 9h1M16 9h2M2 10h1M4 10h1M15 10h14M2 11h1M14 11h1M28 11h1M2 12h1M13 12h1M27 12h2M2 13h1M13 13h1M15 13h10M27 13h2M1 14h13M15 14h1M24 14h1M27 14h2M0 15h1M13 15h1M15 15h1M24 15h1M27 15h2M0 16h1M11 16h3M15 16h1M24 16h1M27 16h2M0 17h1M13 17h1M15 17h1M24 17h1M27 17h2M0 18h1M13 18h1M15 18h1M24 18h1M27 18h2M0 19h14M15 19h1M24 19h1M27 19h2M13 20h1M15 20h10M27 20h2M5 21h1M13 21h1M27 21h2M5 22h1M13 22h1M27 22h1M29 22h2M5 23h1M13 23h1M28 23h2M5 24h1M12 24h17M30 24h1M0 25h1M2 25h2M9 25h3M29 25h2M11 26h1M22 26h6M29 26h2M11 27h1M29 27h2M11 28h1M29 28h2M11 29h19" />
<path stroke="#c2c2c2" d="M4 1h13M15 3h1M15 4h1M15 5h1M15 6h1M15 7h1M15 8h1M15 9h1M15 11h13M3 12h10M26 13h1M26 14h1M26 15h1M2 16h9M26 16h1M2 17h1M5 17h6M26 17h1M2 18h1M5 18h8M26 18h1M26 19h1M26 20h1M6 21h1M26 21h1M6 22h1M14 22h13M6 23h1M30 23h1M6 24h1M29 24h1M0 26h1M2 26h2M9 26h2M13 26h9M28 26h1M13 27h1M16 27h6M28 27h1M13 28h1M16 28h13" />
<path stroke="#000000" d="M18 1h1M18 2h1M18 3h1M5 4h8M18 4h1M5 5h1M18 5h1M5 6h1M18 6h1M5 7h1M18 7h1M5 8h1M18 8h1M5 9h1M18 9h1M29 11h1M29 12h1M3 13h10M29 13h1M16 14h8M29 14h1M16 15h1M29 15h1M16 16h1M29 16h1M11 17h2M16 17h1M29 17h1M16 18h1M29 18h1M16 19h1M29 19h1M1 20h12M29 20h1M7 21h1M29 21h1M7 22h1M28 22h1M7 23h1M14 23h14M31 23h1M7 24h1M31 24h1M8 25h1M31 25h1M8 26h1M31 26h1M0 27h1M2 27h2M8 27h3M22 27h6M31 27h1M4 28h5M31 28h1M30 29h1M12 30h18" />
<path stroke="#ffffff" d="M3 2h13M3 3h1M14 3h1M3 4h1M14 4h1M3 5h1M14 5h1M3 6h1M14 6h1M3 7h1M14 7h1M3 8h1M14 8h1M3 9h1M14 9h1M3 10h1M14 10h1M3 11h11M14 12h13M14 13h1M25 13h1M14 14h1M25 14h1M1 15h12M14 15h1M25 15h1M1 16h1M14 16h1M25 16h1M1 17h1M14 17h1M25 17h1M1 18h1M14 18h1M25 18h1M14 19h1M25 19h1M14 20h1M25 20h1M14 21h12M12 25h17M5 26h1M12 26h1M5 27h1M12 27h1M12 28h1" />
<path stroke="#000081" d="M13 4h1M13 5h1M13 6h1M13 7h1M13 8h1M13 9h1M5 10h9" />
<path stroke="#0000ff" d="M6 5h7M6 6h1M8 6h5M6 7h1M8 7h5M6 8h7M6 9h7" />
<path stroke="#00ffff" d="M7 6h1M7 7h1M18 16h1M18 17h1" />
<path stroke="#008181" d="M17 15h7M17 16h1M19 16h5M17 17h1M19 17h5M17 18h7M17 19h7" />
<path stroke="#00ff00" d="M3 17h2M14 27h2" />
<path stroke="#008100" d="M3 18h2M14 28h2" />
<path stroke="#818100" d="M4 25h4M4 26h1M7 26h1M4 27h1M7 27h1" />
<path stroke="#ffff00" d="M6 26h1M6 27h1" />
</svg>